<?xml version="1.0" encoding="UTF-8" standalone="no"?>
<!DOCTYPE svg PUBLIC "-//W3C//DTD SVG 1.1//EN"
 "http://www.w3.org/Graphics/SVG/1.1/DTD/svg11.dtd">
<!-- Generated by graphviz version 2.43.0 (0)
 -->
<!-- Title: %3 Pages: 1 -->
<svg width="356pt" height="32pt"
 viewBox="0.00 0.00 356.34 31.56" xmlns="http://www.w3.org/2000/svg" xmlns:xlink="http://www.w3.org/1999/xlink">
<g id="graph0" class="graph" transform="scale(1 1) rotate(0) translate(4 27.56)">
<title>%3</title>
<polygon fill="white" stroke="transparent" points="-4,4 -4,-27.56 352.34,-27.56 352.34,4 -4,4"/>
<!-- start -->
<g id="node1" class="node">
<title>start</title>
<ellipse fill="black" stroke="black" cx="0" cy="-11.78" rx="0" ry="0"/>
</g>
<!-- 0 -->
<g id="node2" class="node">
<title>0</title>
<ellipse fill="none" stroke="black" cx="44.78" cy="-11.78" rx="7.56" ry="7.56"/>
<text text-anchor="middle" x="44.78" y="-9.28" font-family="Monospace" font-size="10.00">0</text>
</g>
<!-- start&#45;&gt;0 -->
<g id="edge1" class="edge">
<title>start&#45;&gt;0</title>
<path fill="none" stroke="black" d="M1.12,-11.78C2.81,-11.78 21.45,-11.78 33.53,-11.78"/>
<polygon fill="black" stroke="black" points="33.74,-12.83 36.74,-11.78 33.74,-10.73 33.74,-12.83"/>
</g>
<!-- 1 -->
<g id="node3" class="node">
<title>1</title>
<ellipse fill="none" stroke="black" cx="102.33" cy="-11.78" rx="7.56" ry="7.56"/>
<text text-anchor="middle" x="102.33" y="-9.28" font-family="Monospace" font-size="10.00">2</text>
</g>
<!-- 0&#45;&gt;1 -->
<g id="edge2" class="edge">
<title>0&#45;&gt;1</title>
<path fill="none" stroke="black" d="M52.59,-11.78C62.25,-11.78 80.01,-11.78 91.22,-11.78"/>
<polygon fill="black" stroke="black" points="91.47,-12.83 94.47,-11.78 91.47,-10.73 91.47,-12.83"/>
<text text-anchor="middle" x="73.56" y="-14.58" font-family="Monospace" font-size="9.00">a</text>
</g>
<!-- 4 -->
<g id="node6" class="node">
<title>4</title>
<ellipse fill="none" stroke="black" cx="159.89" cy="-11.78" rx="7.56" ry="7.56"/>
<text text-anchor="middle" x="159.89" y="-9.28" font-family="Monospace" font-size="10.00">3</text>
</g>
<!-- 1&#45;&gt;4 -->
<g id="edge4" class="edge">
<title>1&#45;&gt;4</title>
<path fill="none" stroke="black" d="M110.15,-11.78C119.81,-11.78 137.57,-11.78 148.77,-11.78"/>
<polygon fill="black" stroke="black" points="149.02,-12.83 152.02,-11.78 149.02,-10.73 149.02,-12.83"/>
<text text-anchor="middle" x="131.11" y="-14.58" font-family="Monospace" font-size="9.00">ε</text>
</g>
<!-- 2 -->
<g id="node4" class="node">
<title>2</title>
<ellipse fill="none" stroke="black" cx="217.45" cy="-11.78" rx="7.56" ry="7.56"/>
<text text-anchor="middle" x="217.45" y="-9.28" font-family="Monospace" font-size="10.00">1</text>
</g>
<!-- 3 -->
<g id="node5" class="node">
<title>3</title>
<ellipse fill="none" stroke="black" cx="275" cy="-11.78" rx="7.56" ry="7.56"/>
<text text-anchor="middle" x="275" y="-9.28" font-family="Monospace" font-size="10.00">4</text>
</g>
<!-- 2&#45;&gt;3 -->
<g id="edge3" class="edge">
<title>2&#45;&gt;3</title>
<path fill="none" stroke="black" d="M225.26,-11.78C234.92,-11.78 252.68,-11.78 263.88,-11.78"/>
<polygon fill="black" stroke="black" points="264.14,-12.83 267.14,-11.78 264.14,-10.73 264.14,-12.83"/>
<text text-anchor="middle" x="246.23" y="-14.58" font-family="Monospace" font-size="9.00">ε</text>
</g>
<!-- 5 -->
<g id="node7" class="node">
<title>5</title>
<ellipse fill="none" stroke="black" cx="336.56" cy="-11.78" rx="7.63" ry="7.63"/>
<ellipse fill="none" stroke="black" cx="336.56" cy="-11.78" rx="11.56" ry="11.56"/>
<text text-anchor="middle" x="336.56" y="-9.28" font-family="Monospace" font-size="10.00">5</text>
</g>
<!-- 3&#45;&gt;5 -->
<g id="edge6" class="edge">
<title>3&#45;&gt;5</title>
<path fill="none" stroke="black" d="M282.84,-11.78C292.11,-11.78 308.91,-11.78 321.06,-11.78"/>
<polygon fill="black" stroke="black" points="321.35,-12.83 324.35,-11.78 321.35,-10.73 321.35,-12.83"/>
<text text-anchor="middle" x="303.78" y="-14.58" font-family="Monospace" font-size="9.00">c</text>
</g>
<!-- 4&#45;&gt;2 -->
<g id="edge5" class="edge">
<title>4&#45;&gt;2</title>
<path fill="none" stroke="black" d="M167.7,-11.78C177.37,-11.78 195.12,-11.78 206.33,-11.78"/>
<polygon fill="black" stroke="black" points="206.58,-12.83 209.58,-11.78 206.58,-10.73 206.58,-12.83"/>
<text text-anchor="middle" x="188.67" y="-14.58" font-family="Monospace" font-size="9.00">b</text>
</g>
</g>
</svg>
