<?xml version="1.0" encoding="UTF-8" standalone="no"?>
<!DOCTYPE svg PUBLIC "-//W3C//DTD SVG 1.1//EN"
 "http://www.w3.org/Graphics/SVG/1.1/DTD/svg11.dtd">
<!-- Generated by graphviz version 2.43.0 (0)
 -->
<!-- Title: %3 Pages: 1 -->
<svg width="366pt" height="160pt"
 viewBox="0.00 0.00 365.89 159.64" xmlns="http://www.w3.org/2000/svg" xmlns:xlink="http://www.w3.org/1999/xlink">
<g id="graph0" class="graph" transform="scale(1 1) rotate(0) translate(4 155.64)">
<title>%3</title>
<polygon fill="white" stroke="transparent" points="-4,4 -4,-155.64 361.89,-155.64 361.89,4 -4,4"/>
<!-- start -->
<g id="node1" class="node">
<title>start</title>
<ellipse fill="black" stroke="black" cx="0" cy="-29.64" rx="0" ry="0"/>
</g>
<!-- 0 -->
<g id="node2" class="node">
<title>0</title>
<ellipse fill="none" stroke="black" cx="78.33" cy="-122.64" rx="7.56" ry="7.56"/>
<text text-anchor="middle" x="78.33" y="-120.14" font-family="Monospace" font-size="10.00">0</text>
</g>
<!-- start&#45;&gt;0 -->
<g id="edge1" class="edge">
<title>start&#45;&gt;0</title>
<path fill="none" stroke="black" d="M1.06,-29.71C2.94,-32.01 52.36,-92.22 70.63,-114.48"/>
<polygon fill="black" stroke="black" points="69.98,-115.34 72.7,-117 71.61,-114.01 69.98,-115.34"/>
</g>
<!-- 1 -->
<g id="node3" class="node">
<title>1</title>
<ellipse fill="none" stroke="black" cx="44.78" cy="-29.64" rx="7.56" ry="7.56"/>
<text text-anchor="middle" x="44.78" y="-27.14" font-family="Monospace" font-size="10.00">1</text>
</g>
<!-- start&#45;&gt;1 -->
<g id="edge2" class="edge">
<title>start&#45;&gt;1</title>
<path fill="none" stroke="black" d="M1.12,-29.64C2.81,-29.64 21.45,-29.64 33.53,-29.64"/>
<polygon fill="black" stroke="black" points="33.74,-30.69 36.74,-29.64 33.74,-28.59 33.74,-30.69"/>
</g>
<!-- 2 -->
<g id="node4" class="node">
<title>2</title>
<ellipse fill="none" stroke="black" cx="169.45" cy="-46.64" rx="7.56" ry="7.56"/>
<text text-anchor="middle" x="169.45" y="-44.14" font-family="Monospace" font-size="10.00">2</text>
</g>
<!-- start&#45;&gt;2 -->
<g id="edge3" class="edge">
<title>start&#45;&gt;2</title>
<path fill="none" stroke="black" d="M1.05,-29.61C2.17,-28.83 20.27,-16.4 37,-12.64 83.26,-2.27 101.41,8.85 143.67,-12.64 153.53,-17.66 160.39,-28.63 164.35,-36.77"/>
<polygon fill="black" stroke="black" points="163.46,-37.34 165.68,-39.62 165.37,-36.45 163.46,-37.34"/>
</g>
<!-- 3 -->
<g id="node5" class="node">
<title>3</title>
<ellipse fill="none" stroke="black" cx="284.56" cy="-95.64" rx="7.56" ry="7.56"/>
<text text-anchor="middle" x="284.56" y="-93.14" font-family="Monospace" font-size="10.00">5</text>
</g>
<!-- 0&#45;&gt;3 -->
<g id="edge4" class="edge">
<title>0&#45;&gt;3</title>
<path fill="none" stroke="black" d="M85.47,-125.95C96.16,-131.4 119.02,-141.64 139.67,-141.64 139.67,-141.64 139.67,-141.64 228,-141.64 250.82,-141.64 269.3,-118.34 278.06,-104.9"/>
<polygon fill="black" stroke="black" points="279.16,-105.14 279.88,-102.04 277.39,-104.01 279.16,-105.14"/>
<text text-anchor="middle" x="169.45" y="-144.44" font-family="Monospace" font-size="9.00">ε</text>
</g>
<!-- 4 -->
<g id="node6" class="node">
<title>4</title>
<ellipse fill="none" stroke="black" cx="111.89" cy="-61.64" rx="7.56" ry="7.56"/>
<text text-anchor="middle" x="111.89" y="-59.14" font-family="Monospace" font-size="10.00">3</text>
</g>
<!-- 1&#45;&gt;4 -->
<g id="edge5" class="edge">
<title>1&#45;&gt;4</title>
<path fill="none" stroke="black" d="M52.26,-32.83C63.86,-38.53 88.22,-50.5 101.6,-57.08"/>
<polygon fill="black" stroke="black" points="101.28,-58.09 104.44,-58.47 102.21,-56.21 101.28,-58.09"/>
<text text-anchor="middle" x="78.33" y="-51.44" font-family="Monospace" font-size="9.00">a</text>
</g>
<!-- 5 -->
<g id="node7" class="node">
<title>5</title>
<ellipse fill="none" stroke="black" cx="227" cy="-44.64" rx="7.56" ry="7.56"/>
<text text-anchor="middle" x="227" y="-42.14" font-family="Monospace" font-size="10.00">4</text>
</g>
<!-- 2&#45;&gt;5 -->
<g id="edge6" class="edge">
<title>2&#45;&gt;5</title>
<path fill="none" stroke="black" d="M177.26,-46.4C186.92,-46.05 204.68,-45.41 215.88,-45.01"/>
<polygon fill="black" stroke="black" points="216.18,-46.05 219.14,-44.89 216.1,-43.95 216.18,-46.05"/>
<text text-anchor="middle" x="198.23" y="-48.44" font-family="Monospace" font-size="9.00">b</text>
</g>
<!-- 6 -->
<g id="node8" class="node">
<title>6</title>
<ellipse fill="none" stroke="black" cx="346.12" cy="-95.64" rx="7.63" ry="7.63"/>
<ellipse fill="none" stroke="black" cx="346.12" cy="-95.64" rx="11.56" ry="11.56"/>
<text text-anchor="middle" x="346.12" y="-93.14" font-family="Monospace" font-size="10.00">6</text>
</g>
<!-- 3&#45;&gt;6 -->
<g id="edge13" class="edge">
<title>3&#45;&gt;6</title>
<path fill="none" stroke="black" d="M292.39,-95.64C301.66,-95.64 318.47,-95.64 330.62,-95.64"/>
<polygon fill="black" stroke="black" points="330.91,-96.69 333.91,-95.64 330.91,-94.59 330.91,-96.69"/>
<text text-anchor="middle" x="313.34" y="-98.44" font-family="Monospace" font-size="9.00">c</text>
</g>
<!-- 4&#45;&gt;1 -->
<g id="edge7" class="edge">
<title>4&#45;&gt;1</title>
<path fill="none" stroke="black" d="M107.88,-54.74C104.07,-47 96.71,-34.84 86.11,-29.64 76.48,-24.92 63.93,-25.85 55.41,-27.36"/>
<polygon fill="black" stroke="black" points="55.21,-26.33 52.46,-27.93 55.61,-28.39 55.21,-26.33"/>
<text text-anchor="middle" x="78.33" y="-32.44" font-family="Monospace" font-size="9.00">ε</text>
</g>
<!-- 4&#45;&gt;2 -->
<g id="edge8" class="edge">
<title>4&#45;&gt;2</title>
<path fill="none" stroke="black" d="M119.7,-59.81C129.45,-57.17 147.43,-52.32 158.62,-49.3"/>
<polygon fill="black" stroke="black" points="158.96,-50.29 161.58,-48.5 158.41,-48.27 158.96,-50.29"/>
<text text-anchor="middle" x="140.67" y="-56.44" font-family="Monospace" font-size="9.00">ε</text>
</g>
<!-- 4&#45;&gt;3 -->
<g id="edge9" class="edge">
<title>4&#45;&gt;3</title>
<path fill="none" stroke="black" d="M119.81,-63.41C124.77,-64.66 131.61,-66.33 137.67,-67.64 188.6,-78.69 250.02,-89.74 273.64,-93.91"/>
<polygon fill="black" stroke="black" points="273.71,-94.99 276.85,-94.47 274.07,-92.92 273.71,-94.99"/>
<text text-anchor="middle" x="198.23" y="-82.44" font-family="Monospace" font-size="9.00">ε</text>
</g>
<!-- 5&#45;&gt;1 -->
<g id="edge10" class="edge">
<title>5&#45;&gt;1</title>
<path fill="none" stroke="black" d="M220.9,-39.16C216.26,-34.6 208.98,-28.43 201.23,-25.64 153.04,-8.36 137.3,-22.53 86.11,-21.64 79.2,-21.52 77.39,-20.57 70.56,-21.64 65.33,-22.47 59.71,-24.21 55.14,-25.86"/>
<polygon fill="black" stroke="black" points="54.61,-24.94 52.16,-26.97 55.34,-26.9 54.61,-24.94"/>
<text text-anchor="middle" x="140.67" y="-20.44" font-family="Monospace" font-size="9.00">ε</text>
</g>
<!-- 5&#45;&gt;2 -->
<g id="edge11" class="edge">
<title>5&#45;&gt;2</title>
<path fill="none" stroke="black" d="M220.51,-39.46C214.49,-34.43 204.46,-27.92 195.23,-30.64 188.93,-32.5 182.72,-36.51 178.09,-40.06"/>
<polygon fill="black" stroke="black" points="177.39,-39.27 175.7,-41.96 178.7,-40.92 177.39,-39.27"/>
<text text-anchor="middle" x="198.23" y="-33.44" font-family="Monospace" font-size="9.00">ε</text>
</g>
<!-- 5&#45;&gt;3 -->
<g id="edge12" class="edge">
<title>5&#45;&gt;3</title>
<path fill="none" stroke="black" d="M233.75,-49.54C239.99,-54.88 250.21,-63.74 258.78,-71.64 264.68,-77.09 271.2,-83.41 276.07,-88.2"/>
<polygon fill="black" stroke="black" points="275.44,-89.06 278.32,-90.42 276.92,-87.56 275.44,-89.06"/>
<text text-anchor="middle" x="255.78" y="-74.44" font-family="Monospace" font-size="9.00">ε</text>
</g>
</g>
</svg>
