<?xml version="1.0" encoding="UTF-8" standalone="no"?>
<!DOCTYPE svg PUBLIC "-//W3C//DTD SVG 1.1//EN"
 "http://www.w3.org/Graphics/SVG/1.1/DTD/svg11.dtd">
<!-- Generated by graphviz version 2.43.0 (0)
 -->
<!-- Title: %3 Pages: 1 -->
<svg width="126pt" height="84pt"
 viewBox="0.00 0.00 126.11 83.56" xmlns="http://www.w3.org/2000/svg" xmlns:xlink="http://www.w3.org/1999/xlink">
<g id="graph0" class="graph" transform="scale(1 1) rotate(0) translate(4 79.56)">
<title>%3</title>
<polygon fill="white" stroke="transparent" points="-4,4 -4,-79.56 122.11,-79.56 122.11,4 -4,4"/>
<!-- start -->
<g id="node1" class="node">
<title>start</title>
<ellipse fill="black" stroke="black" cx="0" cy="-11.78" rx="0" ry="0"/>
</g>
<!-- 0 -->
<g id="node2" class="node">
<title>0</title>
<ellipse fill="none" stroke="black" cx="44.78" cy="-11.78" rx="7.56" ry="7.56"/>
<text text-anchor="middle" x="44.78" y="-9.28" font-family="Monospace" font-size="10.00">1</text>
</g>
<!-- start&#45;&gt;0 -->
<g id="edge1" class="edge">
<title>start&#45;&gt;0</title>
<path fill="none" stroke="black" d="M1.12,-11.78C2.81,-11.78 21.45,-11.78 33.53,-11.78"/>
<polygon fill="black" stroke="black" points="33.74,-12.83 36.74,-11.78 33.74,-10.73 33.74,-12.83"/>
</g>
<!-- 0&#45;&gt;0 -->
<g id="edge2" class="edge">
<title>0&#45;&gt;0</title>
<path fill="none" stroke="black" d="M42.95,-19.43C41.73,-27.89 42.34,-37.56 44.78,-37.56 46.91,-37.56 47.64,-30.16 46.98,-22.64"/>
<polygon fill="black" stroke="black" points="47.99,-22.29 46.61,-19.43 45.91,-22.53 47.99,-22.29"/>
<text text-anchor="middle" x="44.78" y="-40.36" font-family="Monospace" font-size="9.00">a</text>
</g>
<!-- 0&#45;&gt;0 -->
<g id="edge3" class="edge">
<title>0&#45;&gt;0</title>
<path fill="none" stroke="black" d="M42.21,-19.52C38.44,-34.78 39.29,-55.56 44.78,-55.56 49.88,-55.56 50.98,-37.6 48.08,-22.81"/>
<polygon fill="black" stroke="black" points="49.02,-22.22 47.35,-19.52 46.97,-22.68 49.02,-22.22"/>
<text text-anchor="middle" x="44.78" y="-58.36" font-family="Monospace" font-size="9.00">b</text>
</g>
<!-- 1 -->
<g id="node3" class="node">
<title>1</title>
<ellipse fill="none" stroke="black" cx="106.33" cy="-11.78" rx="7.63" ry="7.63"/>
<ellipse fill="none" stroke="black" cx="106.33" cy="-11.78" rx="11.56" ry="11.56"/>
<text text-anchor="middle" x="106.33" y="-9.28" font-family="Monospace" font-size="10.00">0</text>
</g>
<!-- 0&#45;&gt;1 -->
<g id="edge4" class="edge">
<title>0&#45;&gt;1</title>
<path fill="none" stroke="black" d="M52.61,-11.78C61.88,-11.78 78.69,-11.78 90.83,-11.78"/>
<polygon fill="black" stroke="black" points="91.13,-12.83 94.13,-11.78 91.13,-10.73 91.13,-12.83"/>
<text text-anchor="middle" x="73.56" y="-14.58" font-family="Monospace" font-size="9.00">c</text>
</g>
</g>
</svg>
