<?xml version="1.0" encoding="UTF-8" standalone="no"?>
<!DOCTYPE svg PUBLIC "-//W3C//DTD SVG 1.1//EN"
 "http://www.w3.org/Graphics/SVG/1.1/DTD/svg11.dtd">
<!-- Generated by graphviz version 2.43.0 (0)
 -->
<!-- Title: %3 Pages: 1 -->
<svg width="257pt" height="60pt"
 viewBox="0.00 0.00 257.23 59.78" xmlns="http://www.w3.org/2000/svg" xmlns:xlink="http://www.w3.org/1999/xlink">
<g id="graph0" class="graph" transform="scale(1 1) rotate(0) translate(4 55.78)">
<title>%3</title>
<polygon fill="white" stroke="transparent" points="-4,4 -4,-55.78 253.23,-55.78 253.23,4 -4,4"/>
<!-- start -->
<g id="node1" class="node">
<title>start</title>
<ellipse fill="black" stroke="black" cx="0" cy="-23.78" rx="0" ry="0"/>
</g>
<!-- 0 -->
<g id="node2" class="node">
<title>0</title>
<ellipse fill="none" stroke="black" cx="44.78" cy="-23.78" rx="7.56" ry="7.56"/>
<text text-anchor="middle" x="44.78" y="-21.28" font-family="Monospace" font-size="10.00">4</text>
</g>
<!-- start&#45;&gt;0 -->
<g id="edge1" class="edge">
<title>start&#45;&gt;0</title>
<path fill="none" stroke="black" d="M1.12,-23.78C2.81,-23.78 21.45,-23.78 33.53,-23.78"/>
<polygon fill="black" stroke="black" points="33.74,-24.83 36.74,-23.78 33.74,-22.73 33.74,-24.83"/>
</g>
<!-- 4 -->
<g id="node6" class="node">
<title>4</title>
<ellipse fill="none" stroke="black" cx="102.33" cy="-41.78" rx="7.56" ry="7.56"/>
<text text-anchor="middle" x="102.33" y="-39.28" font-family="Monospace" font-size="10.00">3</text>
</g>
<!-- 0&#45;&gt;4 -->
<g id="edge5" class="edge">
<title>0&#45;&gt;4</title>
<path fill="none" stroke="black" d="M52.59,-25.99C62.44,-29.18 80.71,-35.1 91.87,-38.71"/>
<polygon fill="black" stroke="black" points="91.63,-39.74 94.81,-39.66 92.28,-37.74 91.63,-39.74"/>
<text text-anchor="middle" x="73.56" y="-36.58" font-family="Monospace" font-size="9.00">d</text>
</g>
<!-- 5 -->
<g id="node7" class="node">
<title>5</title>
<ellipse fill="none" stroke="black" cx="102.33" cy="-7.78" rx="7.56" ry="7.56"/>
<text text-anchor="middle" x="102.33" y="-5.28" font-family="Monospace" font-size="10.00">5</text>
</g>
<!-- 0&#45;&gt;5 -->
<g id="edge6" class="edge">
<title>0&#45;&gt;5</title>
<path fill="none" stroke="black" d="M51.48,-19.15C56.25,-15.58 63.42,-10.9 70.56,-8.78 77.3,-6.78 85.25,-6.57 91.38,-6.84"/>
<polygon fill="black" stroke="black" points="91.52,-7.9 94.57,-7.03 91.64,-5.8 91.52,-7.9"/>
<text text-anchor="middle" x="73.56" y="-11.58" font-family="Monospace" font-size="9.00">c</text>
</g>
<!-- 1 -->
<g id="node3" class="node">
<title>1</title>
<ellipse fill="none" stroke="black" cx="237.45" cy="-23.78" rx="7.63" ry="7.63"/>
<ellipse fill="none" stroke="black" cx="237.45" cy="-23.78" rx="11.56" ry="11.56"/>
<text text-anchor="middle" x="237.45" y="-21.28" font-family="Monospace" font-size="10.00">0</text>
</g>
<!-- 2 -->
<g id="node4" class="node">
<title>2</title>
<ellipse fill="none" stroke="black" cx="159.89" cy="-7.78" rx="7.56" ry="7.56"/>
<text text-anchor="middle" x="159.89" y="-5.28" font-family="Monospace" font-size="10.00">1</text>
</g>
<!-- 2&#45;&gt;1 -->
<g id="edge2" class="edge">
<title>2&#45;&gt;1</title>
<path fill="none" stroke="black" d="M167.68,-6.97C176.9,-6.09 193.82,-5.23 207.67,-8.78 213.56,-10.29 219.61,-13.19 224.62,-16.05"/>
<polygon fill="black" stroke="black" points="224.18,-17.01 227.3,-17.62 225.24,-15.2 224.18,-17.01"/>
<text text-anchor="middle" x="196.67" y="-11.58" font-family="Monospace" font-size="9.00">r, t</text>
</g>
<!-- 3 -->
<g id="node5" class="node">
<title>3</title>
<ellipse fill="none" stroke="black" cx="159.89" cy="-41.78" rx="7.56" ry="7.56"/>
<text text-anchor="middle" x="159.89" y="-39.28" font-family="Monospace" font-size="10.00">2</text>
</g>
<!-- 3&#45;&gt;1 -->
<g id="edge3" class="edge">
<title>3&#45;&gt;1</title>
<path fill="none" stroke="black" d="M167.6,-40.18C179.92,-37.24 206.4,-30.94 222.69,-27.05"/>
<polygon fill="black" stroke="black" points="223.13,-28.03 225.81,-26.31 222.65,-25.99 223.13,-28.03"/>
<text text-anchor="middle" x="196.67" y="-38.58" font-family="Monospace" font-size="9.00">g</text>
</g>
<!-- 4&#45;&gt;3 -->
<g id="edge4" class="edge">
<title>4&#45;&gt;3</title>
<path fill="none" stroke="black" d="M110.15,-41.78C119.81,-41.78 137.57,-41.78 148.77,-41.78"/>
<polygon fill="black" stroke="black" points="149.02,-42.83 152.02,-41.78 149.02,-40.73 149.02,-42.83"/>
<text text-anchor="middle" x="131.11" y="-44.58" font-family="Monospace" font-size="9.00">o</text>
</g>
<!-- 5&#45;&gt;2 -->
<g id="edge7" class="edge">
<title>5&#45;&gt;2</title>
<path fill="none" stroke="black" d="M110.15,-7.78C119.81,-7.78 137.57,-7.78 148.77,-7.78"/>
<polygon fill="black" stroke="black" points="149.02,-8.83 152.02,-7.78 149.02,-6.73 149.02,-8.83"/>
<text text-anchor="middle" x="131.11" y="-10.58" font-family="Monospace" font-size="9.00">a</text>
</g>
</g>
</svg>
