<?xml version="1.0" encoding="UTF-8" standalone="no"?>
<!DOCTYPE svg PUBLIC "-//W3C//DTD SVG 1.1//EN"
 "http://www.w3.org/Graphics/SVG/1.1/DTD/svg11.dtd">
<!-- Generated by graphviz version 2.43.0 (0)
 -->
<!-- Title: %3 Pages: 1 -->
<svg width="244pt" height="149pt"
 viewBox="0.00 0.00 243.81 148.87" xmlns="http://www.w3.org/2000/svg" xmlns:xlink="http://www.w3.org/1999/xlink">
<g id="graph0" class="graph" transform="scale(1 1) rotate(0) translate(4 144.87)">
<title>%3</title>
<polygon fill="white" stroke="transparent" points="-4,4 -4,-144.87 239.81,-144.87 239.81,4 -4,4"/>
<!-- start -->
<g id="node1" class="node">
<title>start</title>
<ellipse fill="black" stroke="black" cx="0" cy="-43.44" rx="0" ry="0"/>
</g>
<!-- 0 -->
<g id="node2" class="node">
<title>0</title>
<ellipse fill="none" stroke="black" cx="39" cy="-43.44" rx="2" ry="2"/>
</g>
<!-- start&#45;&gt;0 -->
<g id="edge1" class="edge">
<title>start&#45;&gt;0</title>
<path fill="none" stroke="black" d="M1.11,-43.44C2.77,-43.44 23.51,-43.44 33.14,-43.44"/>
<polygon fill="black" stroke="black" points="33.5,-44.49 36.5,-43.44 33.5,-42.39 33.5,-44.49"/>
</g>
<!-- 1 -->
<g id="node3" class="node">
<title>1</title>
<ellipse fill="none" stroke="black" cx="90.78" cy="-61.44" rx="7.56" ry="7.56"/>
<text text-anchor="middle" x="90.78" y="-58.94" font-family="Monospace" font-size="10.00">c</text>
</g>
<!-- 0&#45;&gt;1 -->
<g id="edge2" class="edge">
<title>0&#45;&gt;1</title>
<path fill="none" stroke="black" d="M41.23,-43.88C46.53,-45.8 67.71,-53.45 80.28,-58"/>
<polygon fill="black" stroke="black" points="80.09,-59.05 83.27,-59.08 80.81,-57.07 80.09,-59.05"/>
<text text-anchor="middle" x="62" y="-55.24" font-family="Monospace" font-size="9.00">c</text>
</g>
<!-- 2 -->
<g id="node4" class="node">
<title>2</title>
<ellipse fill="none" stroke="black" cx="90.78" cy="-27.44" rx="7.56" ry="7.56"/>
<text text-anchor="middle" x="90.78" y="-24.94" font-family="Monospace" font-size="10.00">d</text>
</g>
<!-- 0&#45;&gt;2 -->
<g id="edge3" class="edge">
<title>0&#45;&gt;2</title>
<path fill="none" stroke="black" d="M40.89,-42.37C43.38,-39.46 50.79,-31.44 59,-28.44 65.61,-26.02 73.56,-25.82 79.72,-26.2"/>
<polygon fill="black" stroke="black" points="79.87,-27.27 82.94,-26.46 80.04,-25.18 79.87,-27.27"/>
<text text-anchor="middle" x="62" y="-31.24" font-family="Monospace" font-size="9.00">d</text>
</g>
<!-- 3 -->
<g id="node5" class="node">
<title>3</title>
<ellipse fill="none" stroke="black" cx="149.75" cy="-70.44" rx="9.39" ry="9.39"/>
<text text-anchor="middle" x="149.75" y="-67.94" font-family="Monospace" font-size="10.00">ca</text>
</g>
<!-- 1&#45;&gt;3 -->
<g id="edge4" class="edge">
<title>1&#45;&gt;3</title>
<path fill="none" stroke="black" d="M98.76,-62.54C108.43,-64.07 126,-66.84 137.52,-68.66"/>
<polygon fill="black" stroke="black" points="137.47,-69.72 140.6,-69.15 137.8,-67.64 137.47,-69.72"/>
<text text-anchor="middle" x="119.56" y="-68.24" font-family="Monospace" font-size="9.00">a</text>
</g>
<!-- 6 -->
<g id="node8" class="node">
<title>6</title>
<ellipse fill="none" stroke="black" cx="149.75" cy="-26.44" rx="9.39" ry="9.39"/>
<text text-anchor="middle" x="149.75" y="-23.94" font-family="Monospace" font-size="10.00">do</text>
</g>
<!-- 2&#45;&gt;6 -->
<g id="edge7" class="edge">
<title>2&#45;&gt;6</title>
<path fill="none" stroke="black" d="M98.76,-27.31C108.32,-27.14 125.61,-26.84 137.13,-26.64"/>
<polygon fill="black" stroke="black" points="137.24,-27.69 140.22,-26.58 137.2,-25.59 137.24,-27.69"/>
<text text-anchor="middle" x="119.56" y="-30.24" font-family="Monospace" font-size="9.00">o</text>
</g>
<!-- 4 -->
<g id="node6" class="node">
<title>4</title>
<ellipse fill="none" stroke="black" cx="218.38" cy="-123.44" rx="13.39" ry="13.39"/>
<ellipse fill="none" stroke="black" cx="218.38" cy="-123.44" rx="17.37" ry="17.37"/>
<text text-anchor="middle" x="218.38" y="-120.94" font-family="Monospace" font-size="10.00">car</text>
</g>
<!-- 3&#45;&gt;4 -->
<g id="edge5" class="edge">
<title>3&#45;&gt;4</title>
<path fill="none" stroke="black" d="M157.38,-75.71C167.65,-83.88 187.68,-99.81 201.76,-111.01"/>
<polygon fill="black" stroke="black" points="201.14,-111.86 204.14,-112.91 202.45,-110.22 201.14,-111.86"/>
<text text-anchor="middle" x="179.94" y="-97.24" font-family="Monospace" font-size="9.00">r</text>
</g>
<!-- 5 -->
<g id="node7" class="node">
<title>5</title>
<ellipse fill="none" stroke="black" cx="218.38" cy="-70.44" rx="13.39" ry="13.39"/>
<ellipse fill="none" stroke="black" cx="218.38" cy="-70.44" rx="17.37" ry="17.37"/>
<text text-anchor="middle" x="218.38" y="-67.94" font-family="Monospace" font-size="10.00">cat</text>
</g>
<!-- 3&#45;&gt;5 -->
<g id="edge6" class="edge">
<title>3&#45;&gt;5</title>
<path fill="none" stroke="black" d="M159.19,-70.44C168.81,-70.44 184.86,-70.44 197.67,-70.44"/>
<polygon fill="black" stroke="black" points="197.85,-71.49 200.85,-70.44 197.85,-69.39 197.85,-71.49"/>
<text text-anchor="middle" x="179.94" y="-73.24" font-family="Monospace" font-size="9.00">t</text>
</g>
<!-- 7 -->
<g id="node9" class="node">
<title>7</title>
<ellipse fill="none" stroke="black" cx="218.38" cy="-17.44" rx="13.39" ry="13.39"/>
<ellipse fill="none" stroke="black" cx="218.38" cy="-17.44" rx="17.37" ry="17.37"/>
<text text-anchor="middle" x="218.38" y="-14.94" font-family="Monospace" font-size="10.00">dog</text>
</g>
<!-- 6&#45;&gt;7 -->
<g id="edge8" class="edge">
<title>6&#45;&gt;7</title>
<path fill="none" stroke="black" d="M158.92,-25.33C168.53,-24.03 184.81,-21.83 197.76,-20.09"/>
<polygon fill="black" stroke="black" points="198.14,-21.09 200.97,-19.65 197.86,-19.01 198.14,-21.09"/>
<text text-anchor="middle" x="179.94" y="-26.24" font-family="Monospace" font-size="9.00">g</text>
</g>
</g>
</svg>
