<?xml version="1.0" encoding="UTF-8" standalone="no"?>
<!DOCTYPE svg PUBLIC "-//W3C//DTD SVG 1.1//EN"
 "http://www.w3.org/Graphics/SVG/1.1/DTD/svg11.dtd">
<!-- Generated by graphviz version 2.43.0 (0)
 -->
<!-- Title: %3 Pages: 1 -->
<svg width="241pt" height="66pt"
 viewBox="0.00 0.00 241.23 66.07" xmlns="http://www.w3.org/2000/svg" xmlns:xlink="http://www.w3.org/1999/xlink">
<g id="graph0" class="graph" transform="scale(1 1) rotate(0) translate(4 62.07)">
<title>%3</title>
<polygon fill="white" stroke="transparent" points="-4,4 -4,-62.07 237.23,-62.07 237.23,4 -4,4"/>
<!-- start -->
<g id="node1" class="node">
<title>start</title>
<ellipse fill="black" stroke="black" cx="0" cy="-30.07" rx="0" ry="0"/>
</g>
<!-- 0 -->
<g id="node2" class="node">
<title>0</title>
<ellipse fill="none" stroke="black" cx="44.78" cy="-30.07" rx="7.56" ry="7.56"/>
<text text-anchor="middle" x="44.78" y="-27.57" font-family="Monospace" font-size="10.00">4</text>
</g>
<!-- start&#45;&gt;0 -->
<g id="edge1" class="edge">
<title>start&#45;&gt;0</title>
<path fill="none" stroke="black" d="M1.12,-30.07C2.81,-30.07 21.45,-30.07 33.53,-30.07"/>
<polygon fill="black" stroke="black" points="33.74,-31.12 36.74,-30.07 33.74,-29.02 33.74,-31.12"/>
</g>
<!-- 4 -->
<g id="node6" class="node">
<title>4</title>
<ellipse fill="none" stroke="black" cx="102.33" cy="-48.07" rx="7.56" ry="7.56"/>
<text text-anchor="middle" x="102.33" y="-45.57" font-family="Monospace" font-size="10.00">3</text>
</g>
<!-- 0&#45;&gt;4 -->
<g id="edge7" class="edge">
<title>0&#45;&gt;4</title>
<path fill="none" stroke="black" d="M52.59,-32.27C62.44,-35.47 80.71,-41.38 91.87,-45"/>
<polygon fill="black" stroke="black" points="91.63,-46.03 94.81,-45.95 92.28,-44.03 91.63,-46.03"/>
<text text-anchor="middle" x="73.56" y="-42.87" font-family="Monospace" font-size="9.00">d</text>
</g>
<!-- 5 -->
<g id="node7" class="node">
<title>5</title>
<ellipse fill="none" stroke="black" cx="102.33" cy="-14.07" rx="7.56" ry="7.56"/>
<text text-anchor="middle" x="102.33" y="-11.57" font-family="Monospace" font-size="10.00">5</text>
</g>
<!-- 0&#45;&gt;5 -->
<g id="edge6" class="edge">
<title>0&#45;&gt;5</title>
<path fill="none" stroke="black" d="M51.48,-25.44C56.25,-21.87 63.42,-17.18 70.56,-15.07 77.3,-13.07 85.25,-12.86 91.38,-13.13"/>
<polygon fill="black" stroke="black" points="91.52,-14.19 94.57,-13.32 91.64,-12.09 91.52,-14.19"/>
<text text-anchor="middle" x="73.56" y="-17.87" font-family="Monospace" font-size="9.00">c</text>
</g>
<!-- 1 -->
<g id="node3" class="node">
<title>1</title>
<ellipse fill="none" stroke="black" cx="221.45" cy="-15.07" rx="7.63" ry="7.63"/>
<ellipse fill="none" stroke="black" cx="221.45" cy="-15.07" rx="11.56" ry="11.56"/>
<text text-anchor="middle" x="221.45" y="-12.57" font-family="Monospace" font-size="10.00">0</text>
</g>
<!-- 2 -->
<g id="node4" class="node">
<title>2</title>
<ellipse fill="none" stroke="black" cx="159.89" cy="-14.07" rx="7.56" ry="7.56"/>
<text text-anchor="middle" x="159.89" y="-11.57" font-family="Monospace" font-size="10.00">1</text>
</g>
<!-- 2&#45;&gt;1 -->
<g id="edge2" class="edge">
<title>2&#45;&gt;1</title>
<path fill="none" stroke="black" d="M167.72,-14.18C176.99,-14.34 193.8,-14.62 205.95,-14.82"/>
<polygon fill="black" stroke="black" points="206.22,-15.88 209.24,-14.88 206.26,-13.78 206.22,-15.88"/>
<text text-anchor="middle" x="188.67" y="-17.87" font-family="Monospace" font-size="9.00">r</text>
</g>
<!-- 2&#45;&gt;1 -->
<g id="edge3" class="edge">
<title>2&#45;&gt;1</title>
<path fill="none" stroke="black" d="M166.37,-9.41C172.37,-4.87 182.4,1.07 191.67,-1.07 197.43,-2.39 203.36,-5.03 208.34,-7.67"/>
<polygon fill="black" stroke="black" points="207.86,-8.6 211,-9.12 208.87,-6.76 207.86,-8.6"/>
<text text-anchor="middle" x="188.67" y="-3.87" font-family="Monospace" font-size="9.00">t</text>
</g>
<!-- 3 -->
<g id="node5" class="node">
<title>3</title>
<ellipse fill="none" stroke="black" cx="159.89" cy="-48.07" rx="7.56" ry="7.56"/>
<text text-anchor="middle" x="159.89" y="-45.57" font-family="Monospace" font-size="10.00">2</text>
</g>
<!-- 3&#45;&gt;1 -->
<g id="edge4" class="edge">
<title>3&#45;&gt;1</title>
<path fill="none" stroke="black" d="M167.26,-44.54C176.97,-39.16 195.65,-28.81 208.08,-21.92"/>
<polygon fill="black" stroke="black" points="208.67,-22.79 210.79,-20.42 207.65,-20.96 208.67,-22.79"/>
<text text-anchor="middle" x="188.67" y="-36.87" font-family="Monospace" font-size="9.00">g</text>
</g>
<!-- 4&#45;&gt;3 -->
<g id="edge5" class="edge">
<title>4&#45;&gt;3</title>
<path fill="none" stroke="black" d="M110.15,-48.07C119.81,-48.07 137.57,-48.07 148.77,-48.07"/>
<polygon fill="black" stroke="black" points="149.02,-49.12 152.02,-48.07 149.02,-47.02 149.02,-49.12"/>
<text text-anchor="middle" x="131.11" y="-50.87" font-family="Monospace" font-size="9.00">o</text>
</g>
<!-- 5&#45;&gt;2 -->
<g id="edge8" class="edge">
<title>5&#45;&gt;2</title>
<path fill="none" stroke="black" d="M110.15,-14.07C119.81,-14.07 137.57,-14.07 148.77,-14.07"/>
<polygon fill="black" stroke="black" points="149.02,-15.12 152.02,-14.07 149.02,-13.02 149.02,-15.12"/>
<text text-anchor="middle" x="131.11" y="-16.87" font-family="Monospace" font-size="9.00">a</text>
</g>
</g>
</svg>
